<svg id="Ebene_1" data-name="Ebene 1" xmlns="http://www.w3.org/2000/svg" xmlns:xlink="http://www.w3.org/1999/xlink" viewBox="0 0 344.34 384.38"><defs><style>.cls-1,.cls-2,.cls-5{fill:none;}.cls-2,.cls-5{stroke:#222221;}.cls-3{clip-path:url(#clip-path);}.cls-4{fill:#fff;}.cls-5{stroke-linecap:round;stroke-linejoin:round;stroke-width:1.5px;}</style><clipPath id="clip-path" transform="translate(-21.3 -45.69)"><rect class="cls-1" x="12.3" y="45.69" width="362.34" height="385.38"/></clipPath></defs><title>Semiodesk_Bobbles</title><polyline class="cls-2" points="292.74 92.84 307.25 216.09 189.95 137.66"/><polyline class="cls-2" points="173.46 6.89 89.39 64.71 189.38 137.17 291.85 86.99 175.21 6.32 190.09 136.72"/><polyline class="cls-2" points="83.3 69.39 43.4 160.43 189.1 135.75"/><polyline class="cls-2" points="307.25 221.76 176.39 316.72 45.52 161.03"/><line class="cls-2" x1="187.78" y1="171.27" x2="177.13" y2="317.41"/><g class="cls-3"><path class="cls-4" d="M110.65,145.86a35.72,35.72,0,1,0-35.72-35.72,35.71,35.71,0,0,0,35.72,35.72" transform="translate(-21.3 -45.69)"/><path class="cls-2" d="M110.65,145.86a35.72,35.72,0,1,0-35.72-35.72A35.71,35.71,0,0,0,110.65,145.86Z" transform="translate(-21.3 -45.69)"/><path class="cls-4" d="M313.15,171.85A39.17,39.17,0,1,0,274,132.68a39.17,39.17,0,0,0,39.17,39.17" transform="translate(-21.3 -45.69)"/><circle class="cls-2" cx="313.15" cy="132.68" r="39.17" transform="translate(49.43 325.53) rotate(-67.5)"/><path class="cls-4" d="M324.05,302.59a39.17,39.17,0,1,0-39.17-39.17,39.18,39.18,0,0,0,39.17,39.17" transform="translate(-21.3 -45.69)"/><circle class="cls-2" cx="324.05" cy="263.42" r="39.17" transform="translate(-64.63 416.31) rotate(-67.5)"/><path class="cls-4" d="M70.35,249.44a39.17,39.17,0,1,0-39.17-39.17,39.18,39.18,0,0,0,39.17,39.17" transform="translate(-21.3 -45.69)"/><circle class="cls-2" cx="49.05" cy="164.58" r="39.17"/><path class="cls-4" d="M198.84,368.11a7.09,7.09,0,1,0-7.08-7.09,7.09,7.09,0,0,0,7.08,7.09" transform="translate(-21.3 -45.69)"/><path class="cls-2" d="M198.84,368.11a7.09,7.09,0,1,0-7.08-7.09A7.09,7.09,0,0,0,198.84,368.11Z" transform="translate(-21.3 -45.69)"/><path class="cls-4" d="M212.62,226.57a45.08,45.08,0,1,0-45.08-45.08,45.07,45.07,0,0,0,45.08,45.08" transform="translate(-21.3 -45.69)"/><circle class="cls-2" cx="212.62" cy="181.49" r="45.08" transform="translate(-14.8 324.65) rotate(-82.98)"/></g><line class="cls-2" x1="247.46" y1="259.55" x2="54.71" y2="246.09"/><line class="cls-2" x1="232.58" y1="110.02" x2="55.42" y2="246.09"/><line class="cls-2" x1="171.64" y1="7.98" x2="56.13" y2="53.33"/><line class="cls-2" x1="49.04" y1="61.41" x2="51.45" y2="246.8"/><line class="cls-2" x1="323.29" y1="225.89" x2="302.68" y2="324.66"/><line class="cls-2" x1="207.98" y1="38.45" x2="236.83" y2="95.62"/><line class="cls-2" x1="299.91" y1="324.39" x2="251.72" y2="263.8"/><line class="cls-2" x1="314.8" y1="217.89" x2="251.01" y2="259.55"/><line class="cls-2" x1="240.72" y1="118.67" x2="250.3" y2="260.26"/><g class="cls-3"><path class="cls-4" d="M229.28,93.63A11.62,11.62,0,1,0,217.66,82a11.63,11.63,0,0,0,11.62,11.62" transform="translate(-21.3 -45.69)"/><circle class="cls-2" cx="207.98" cy="36.32" r="11.62"/><path class="cls-4" d="M273,330.89a25.16,25.16,0,1,0-25.16-25.16A25.16,25.16,0,0,0,273,330.89" transform="translate(-21.3 -45.69)"/><path class="cls-2" d="M273,330.89a25.16,25.16,0,1,0-25.16-25.16A25.16,25.16,0,0,0,273,330.89Z" transform="translate(-21.3 -45.69)"/><path class="cls-4" d="M344.74,278.81a20.4,20.4,0,1,0-20.4-20.4,20.4,20.4,0,0,0,20.4,20.4" transform="translate(-21.3 -45.69)"/><circle class="cls-2" cx="344.74" cy="258.41" r="20.4" transform="translate(-63.95 24.16) rotate(-10.9)"/><path class="cls-4" d="M322.91,382.35a11.63,11.63,0,1,0-11.62-11.63,11.63,11.63,0,0,0,11.62,11.63" transform="translate(-21.3 -45.69)"/><circle class="cls-2" cx="322.91" cy="370.72" r="11.62" transform="translate(-114.88 63.79) rotate(-16.85)"/><path class="cls-4" d="M73.61,301A11.62,11.62,0,1,0,62,289.35,11.62,11.62,0,0,0,73.61,301" transform="translate(-21.3 -45.69)"/><circle class="cls-2" cx="52.31" cy="243.65" r="11.62"/></g><line class="cls-2" x1="54.24" y1="59.14" x2="101.3" y2="292.43"/><line class="cls-2" x1="130.24" y1="124.23" x2="54.81" y2="55.74"/><line class="cls-2" x1="305.2" y1="203.33" x2="308.79" y2="50.07"/><line class="cls-2" x1="182.38" y1="9.3" x2="298.3" y2="44.01"/><line class="cls-2" x1="307.09" y1="209" x2="175.2" y2="5.85"/><line class="cls-2" x1="174.82" y1="13.57" x2="140.68" y2="124.08"/><line class="cls-2" x1="307.09" y1="209" x2="103.56" y2="293.57"/><line class="cls-2" x1="137.01" y1="136.24" x2="103" y2="292.43"/><line class="cls-2" x1="101.3" y1="294.13" x2="27.31" y2="355.79"/><line class="cls-2" x1="104.7" y1="295.83" x2="143.11" y2="351.68"/><line class="cls-2" x1="300.57" y1="207.59" x2="141.26" y2="131.73"/><g class="cls-3"><path class="cls-4" d="M315.33,248.33a1,1,0,1,0-1-1,1,1,0,0,0,1,1" transform="translate(-21.3 -45.69)"/><path class="cls-5" d="M315.33,248.33a1,1,0,1,0-1-1,1,1,0,0,0,1,1" transform="translate(-21.3 -45.69)"/><path class="cls-4" d="M76.72,112.13a11.62,11.62,0,1,0-11.63-11.62,11.62,11.62,0,0,0,11.63,11.62" transform="translate(-21.3 -45.69)"/><circle class="cls-2" cx="55.41" cy="54.82" r="11.62"/><path class="cls-4" d="M331.23,105.58A11.62,11.62,0,1,0,319.6,94a11.62,11.62,0,0,0,11.63,11.62" transform="translate(-21.3 -45.69)"/><circle class="cls-2" cx="331.23" cy="93.96" r="11.62" transform="translate(-34.03 32.92) rotate(-13.28)"/><path class="cls-4" d="M158.6,189.05A11.63,11.63,0,1,0,147,177.43a11.63,11.63,0,0,0,11.62,11.62" transform="translate(-21.3 -45.69)"/><circle class="cls-2" cx="158.6" cy="177.43" r="11.62" transform="translate(-58.17 267.47) rotate(-82.98)"/><path class="cls-4" d="M198,60.37a7.09,7.09,0,1,0-7.09-7.09A7.1,7.1,0,0,0,198,60.37" transform="translate(-21.3 -45.69)"/><path class="cls-2" d="M198,60.37a7.09,7.09,0,1,0-7.09-7.09A7.1,7.1,0,0,0,198,60.37Z" transform="translate(-21.3 -45.69)"/><path class="cls-4" d="M124.61,372.88a33.55,33.55,0,1,0-33.54-33.54,33.54,33.54,0,0,0,33.54,33.54" transform="translate(-21.3 -45.69)"/><path class="cls-2" d="M124.61,372.88a33.55,33.55,0,1,0-33.54-33.54A33.54,33.54,0,0,0,124.61,372.88Z" transform="translate(-21.3 -45.69)"/><path class="cls-4" d="M47.84,429.58a26,26,0,1,0-26-26.05,26,26,0,0,0,26,26.05" transform="translate(-21.3 -45.69)"/><path class="cls-2" d="M47.84,429.58a26,26,0,1,0-26-26.05A26,26,0,0,0,47.84,429.58Z" transform="translate(-21.3 -45.69)"/><path class="cls-4" d="M166.39,412.82a11.63,11.63,0,1,0-11.62-11.62,11.62,11.62,0,0,0,11.62,11.62" transform="translate(-21.3 -45.69)"/><circle class="cls-2" cx="145.09" cy="355.5" r="11.62"/><path class="cls-4" d="M323.31,263.85a11.62,11.62,0,1,0-11.62-11.62,11.62,11.62,0,0,0,11.62,11.62" transform="translate(-21.3 -45.69)"/><circle class="cls-2" cx="323.31" cy="252.23" r="11.62" transform="translate(-93.22 97.23) rotate(-22.5)"/><path class="cls-4" d="M261.52,164.36a11.62,11.62,0,1,0-11.62-11.62,11.62,11.62,0,0,0,11.62,11.62" transform="translate(-21.3 -45.69)"/><circle class="cls-2" cx="240.22" cy="107.05" r="11.62"/></g></svg>