<?xml version="1.0" encoding="UTF-8" standalone="no"?>
<!-- Created with Inkscape (http://www.inkscape.org/) -->

<svg
   width="352.27722"
   height="352.27722"
   id="svg2"
   version="1.1"
   inkscape:version="1.1.2 (0a00cf5339, 2022-02-04)"
   sodipodi:docname="favicon.svg"
   xmlns:inkscape="http://www.inkscape.org/namespaces/inkscape"
   xmlns:sodipodi="http://sodipodi.sourceforge.net/DTD/sodipodi-0.dtd"
   xmlns="http://www.w3.org/2000/svg"
   xmlns:svg="http://www.w3.org/2000/svg"
   xmlns:rdf="http://www.w3.org/1999/02/22-rdf-syntax-ns#"
   xmlns:cc="http://creativecommons.org/ns#"
   xmlns:dc="http://purl.org/dc/elements/1.1/">
  <defs
     id="defs4" />
  <sodipodi:namedview
     id="base"
     pagecolor="#ffffff"
     bordercolor="#666666"
     borderopacity="1.0"
     inkscape:pageopacity="0.0"
     inkscape:pageshadow="2"
     inkscape:zoom="0.7"
     inkscape:cx="249.28571"
     inkscape:cy="221.42857"
     inkscape:document-units="px"
     inkscape:current-layer="layer1"
     showgrid="false"
     showguides="true"
     inkscape:guide-bbox="true"
     fit-margin-top="0"
     fit-margin-left="0"
     fit-margin-right="0"
     fit-margin-bottom="0"
     inkscape:window-width="1920"
     inkscape:window-height="1011"
     inkscape:window-x="0"
     inkscape:window-y="32"
     inkscape:window-maximized="1"
     inkscape:document-rotation="0"
     inkscape:pagecheckerboard="0" />
  <metadata
     id="metadata7">
    <rdf:RDF>
      <cc:Work
         rdf:about="">
        <dc:format>image/svg+xml</dc:format>
        <dc:type
           rdf:resource="http://purl.org/dc/dcmitype/StillImage" />
      </cc:Work>
    </rdf:RDF>
  </metadata>
  <g
     inkscape:label="Ebene 1"
     inkscape:groupmode="layer"
     id="layer1"
     transform="translate(1226.7466,990.64423)">
    <rect
       style="fill:#ffffff;fill-opacity:0;stroke:#ffffff;stroke-width:2.8696;stroke-miterlimit:4;stroke-dasharray:none;stroke-opacity:0"
       id="rect3808"
       width="562.98755"
       height="562.98755"
       x="-833.38556"
       y="-677.63287"
       rx="0"
       ry="0"
       inkscape:export-filename="C:\Users\Moritz\Desktop\bitmap.png"
       inkscape:export-xdpi="63.621807"
       inkscape:export-ydpi="63.621807" />
    <circle
       style="fill:#119eda;fill-opacity:1;stroke:none;stroke-width:0.5"
       id="path847"
       cx="-1050.608"
       cy="-814.50562"
       r="176.13861" />
    <path
       d="m -1131.2231,-898.9379 c 20.6591,-17.06609 50.3002,-30.09023 81.2888,-30.09023 51.64753,0 79.9413,29.64116 79.9413,65.12063 0,41.31796 -35.0304,54.3421 -66.468,66.0189 -24.7008,9.43126 -48.5036,17.0661 -48.5036,37.72502 0,16.61702 12.5748,31.43757 39.9706,31.43757 19.3115,0 35.0303,-8.08397 49.8506,-19.31164 l 17.51517,23.35359 c -16.61667,13.47322 -40.41967,24.70095 -67.81537,24.70095 -47.1563,0 -75.001,-26.94649 -75.001,-61.97688 0,-36.82687 34.1324,-51.64742 65.1209,-62.87508 23.8024,-8.98219 49.8512,-18.86257 49.8512,-41.31791 0,-18.86257 -14.3718,-34.13225 -43.1144,-34.13225 -26.0483,0 -45.3599,10.77859 -64.2224,26.04828 z"
       style="font-style:normal;font-variant:normal;font-weight:normal;font-stretch:normal;font-size:79.1258px;line-height:125%;font-family:'Source Sans Pro';-inkscape-font-specification:'Source Sans Pro';letter-spacing:0px;word-spacing:0px;fill:#ffffff;fill-opacity:1;stroke:none;stroke-width:5.67587"
       id="path4147" />
  </g>
</svg>
