<?xml version="1.0" encoding="UTF-8" standalone="no"?>
<svg
   width="64.940918mm"
   height="55.222599mm"
   viewBox="0 0 64.940918 55.222599"
   version="1.1"
   id="svg2642"
   sodipodi:docname="ontopic-black.svg"
   inkscape:version="1.1.2 (0a00cf5339, 2022-02-04)"
   xmlns:inkscape="http://www.inkscape.org/namespaces/inkscape"
   xmlns:sodipodi="http://sodipodi.sourceforge.net/DTD/sodipodi-0.dtd"
   xmlns="http://www.w3.org/2000/svg"
   xmlns:svg="http://www.w3.org/2000/svg"
   xmlns:rdf="http://www.w3.org/1999/02/22-rdf-syntax-ns#"
   xmlns:cc="http://creativecommons.org/ns#"
   xmlns:dc="http://purl.org/dc/elements/1.1/">
  <sodipodi:namedview
     id="namedview42"
     pagecolor="#ffffff"
     bordercolor="#666666"
     borderopacity="1.0"
     inkscape:pageshadow="2"
     inkscape:pageopacity="0.0"
     inkscape:pagecheckerboard="0"
     inkscape:document-units="mm"
     showgrid="false"
     inkscape:zoom="2.6399594"
     inkscape:cx="122.53977"
     inkscape:cy="104.54706"
     inkscape:window-width="1920"
     inkscape:window-height="1011"
     inkscape:window-x="0"
     inkscape:window-y="32"
     inkscape:window-maximized="1"
     inkscape:current-layer="svg2642" />
  <defs
     id="defs2636" />
  <metadata
     id="metadata2639">
    <rdf:RDF>
      <cc:Work
         rdf:about="">
        <dc:format>image/svg+xml</dc:format>
        <dc:type
           rdf:resource="http://purl.org/dc/dcmitype/StillImage" />
      </cc:Work>
    </rdf:RDF>
  </metadata>
  <g
     id="layer1"
     transform="translate(-78.65454,-13.210127)"
     style="fill:#000000">
    <g
       id="g1945"
       transform="matrix(0.35277777,0,0,-0.35277777,69.809625,967.11148)"
       style="fill:#000000">
      <g
         id="g142"
         transform="translate(106.4609,2661.2629)"
         style="fill:#000000">
        <path
           d="M 0,0 C 11.794,0 21.355,9.561 21.355,21.355 21.355,33.148 11.794,42.709 0,42.709 v -9.896 c 6.318,0 11.458,-5.14 11.458,-11.458 C 11.458,15.037 6.318,9.896 0,9.896 Z"
           style="fill:#000000;fill-opacity:1;fill-rule:nonzero;stroke:none"
           id="path144" />
      </g>
      <g
         id="g146"
         transform="translate(46.4262,2671.1594)"
         style="fill:#000000">
        <path
           d="m 0,0 c -6.318,0 -11.458,5.14 -11.458,11.458 0,6.318 5.14,11.459 11.458,11.459 v 9.896 c -11.794,0 -21.354,-9.561 -21.354,-21.355 0,-11.793 9.56,-21.354 21.354,-21.354 z"
           style="fill:#000000;fill-opacity:1;fill-rule:nonzero;stroke:none"
           id="path148" />
      </g>
      <path
         d="m 48.23,2703.972 h 56.382 v -9.896 H 48.23 Z"
         style="fill:#000000;fill-opacity:1;fill-rule:nonzero;stroke:none"
         id="path150" />
      <path
         d="m 48.23,2671.159 h 56.382 v -9.896 H 48.23 Z"
         style="fill:#000000;fill-opacity:1;fill-rule:nonzero;stroke:none"
         id="path152" />
      <g
         id="g154"
         transform="translate(98.1767,2604.3494)"
         style="fill:#000000">
        <path
           d="M 0,0 C 11.801,0 21.369,9.567 21.369,21.369 21.369,33.17 11.801,42.738 0,42.738 v -9.904 c 6.322,0 11.465,-5.143 11.465,-11.465 C 11.465,15.047 6.322,9.903 0,9.903 Z"
           style="fill:#000000;fill-opacity:1;fill-rule:nonzero;stroke:none"
           id="path156" />
      </g>
      <g
         id="g158"
         transform="translate(96.3305,2614.2527)"
         style="fill:#000000">
        <path
           d="m 0,0 c -6.322,0 -11.465,5.144 -11.465,11.465 0,6.323 5.143,11.466 11.465,11.466 v 9.903 c -11.801,0 -21.369,-9.567 -21.369,-21.369 0,-11.801 9.568,-21.368 21.369,-21.368 z"
           style="fill:#000000;fill-opacity:1;fill-rule:nonzero;stroke:none"
           id="path160" />
      </g>
      <path
         d="m 140.793,2647.087 h 42.691 v -9.903 h -42.691 z"
         style="fill:#000000;fill-opacity:1;fill-rule:nonzero;stroke:none"
         id="path162" />
      <path
         d="m 140.793,2624.156 h 42.691 v -9.903 h -42.691 z"
         style="fill:#000000;fill-opacity:1;fill-rule:nonzero;stroke:none"
         id="path164" />
      <path
         d="m 138.988,2604.349 h -10.846 v 42.738 h 10.846 z"
         style="fill:#000000;fill-opacity:1;fill-rule:nonzero;stroke:none"
         id="path166" />
      <g
         id="g168"
         transform="translate(185.29,2614.2527)"
         style="fill:#000000">
        <path
           d="m 0,0 c 9.067,0 16.417,7.35 16.417,16.417 0,9.067 -7.35,16.417 -16.417,16.417 v -9.903 c 3.592,0 6.514,-2.922 6.514,-6.514 C 6.514,12.825 3.592,9.903 0,9.903 Z"
           style="fill:#000000;fill-opacity:1;fill-rule:nonzero;stroke:none"
           id="path170" />
      </g>
      <g
         id="g172"
         transform="translate(59.2133,2647.0042)"
         style="fill:#000000">
        <path
           d="m 0,0 h -5.883 -9.885 -5.882 v -9.884 h 5.882 v -32.771 h 9.885 V -9.884 H 0 Z"
           style="fill:#000000;fill-opacity:1;fill-rule:nonzero;stroke:none"
           id="path174" />
      </g>
      <g
         id="g176"
         transform="translate(147.7797,2661.2629)"
         style="fill:#000000">
        <path
           d="m 0,0 h -10.396 v 28.823 c 0,13.886 10.42,13.886 10.42,13.886 h 3.631 v -9.896 c 0,0 -3.655,0 -3.655,-4.936 z"
           style="fill:#000000;fill-opacity:1;fill-rule:nonzero;stroke:none"
           id="path178" />
      </g>
      <g
         id="g180"
         transform="translate(198.7607,2703.9724)"
         style="fill:#000000">
        <path
           d="m 0,0 h 10.396 v -28.823 c 0,-13.886 -10.42,-13.886 -10.42,-13.886 h -3.631 v 9.896 c 0,0 3.655,0 3.655,4.936 z"
           style="fill:#000000;fill-opacity:1;fill-rule:nonzero;stroke:none"
           id="path182" />
      </g>
      <g
         id="g184"
         transform="translate(157.2646,2703.9724)"
         style="fill:#000000">
        <path
           d="m 0,0 h -4.026 v -9.896 h 1.494 c 3.521,0 4.212,-2.166 14.365,-15.862 10.153,-13.697 12.803,-16.951 19.335,-16.951 h 4.869 v 9.896 h -2.465 c -4.327,0 -3.656,0.461 -14.734,14.884 C 7.761,-3.505 6.295,0 0,0"
           style="fill:#000000;fill-opacity:1;fill-rule:nonzero;stroke:none"
           id="path186" />
      </g>
      <g
         id="g188"
         transform="translate(87.7768,2557.325)"
         style="fill:#000000">
        <path
           d="m 0,0 c -6.313,0 -11.449,5.136 -11.449,11.449 0,6.314 5.136,11.45 11.449,11.45 v 9.889 c -11.785,0 -21.338,-9.554 -21.338,-21.339 0,-11.784 9.553,-21.338 21.338,-21.338 z"
           style="fill:#000000;fill-opacity:1;fill-rule:nonzero;stroke:none"
           id="path190" />
      </g>
      <path
         d="m 89.58,2590.113 h 19.084 v -9.889 H 89.58 Z"
         style="fill:#000000;fill-opacity:1;fill-rule:nonzero;stroke:none"
         id="path192" />
      <path
         d="m 89.58,2557.325 h 19.084 v -9.889 H 89.58 Z"
         style="fill:#000000;fill-opacity:1;fill-rule:nonzero;stroke:none"
         id="path194" />
      <g
         id="g196"
         transform="translate(110.4673,2557.325)"
         style="fill:#000000">
        <path
           d="m 0,0 v -9.889 c 7.862,0 14.727,4.255 18.428,10.585 L 10.281,6.417 C 8.416,2.62 4.509,0 0,0"
           style="fill:#000000;fill-opacity:1;fill-rule:nonzero;stroke:none"
           id="path198" />
      </g>
      <g
         id="g200"
         transform="translate(110.4673,2590.113)"
         style="fill:#000000">
        <path
           d="m 0,0 v -9.889 c 3.517,0 6.667,-1.595 8.769,-4.099 l 8.111,5.696 C 12.977,-3.25 6.87,0 0,0"
           style="fill:#000000;fill-opacity:1;fill-rule:nonzero;stroke:none"
           id="path202" />
      </g>
      <g
         id="g204"
         transform="translate(59.2138,2580.2239)"
         style="fill:#000000">
        <path
           d="m 0,0 v 9.889 h -5.886 -9.889 -5.887 V 0 h 5.887 v -22.899 h -5.887 v -9.889 h 5.887 9.889 H 0 v 9.889 H -5.886 V 0 Z"
           style="fill:#000000;fill-opacity:1;fill-rule:nonzero;stroke:none"
           id="path206" />
      </g>
      <path
         d="m 25.073,2647.027 h 10.676 v -9.893 H 25.073 Z"
         style="fill:#000000;fill-opacity:1;fill-rule:nonzero;stroke:none"
         id="path208" />
      <path
         d="m 61.025,2647.027 h 10.676 v -9.893 H 61.025 Z"
         style="fill:#000000;fill-opacity:1;fill-rule:nonzero;stroke:none"
         id="path210" />
    </g>
  </g>
</svg>
