<svg id="Ebene_1" data-name="Ebene 1" xmlns="http://www.w3.org/2000/svg" viewBox="0 0 344.34 384.38"><defs><style>.cls-2{fill:none;stroke:#222221}.cls-3{clip-path:url(#clip-path)}.cls-4{fill:#fff}</style><clipPath id="clip-path" transform="translate(-21.3 -45.69)"><path fill="none" d="M12.3 45.69h362.34v385.38H12.3z"/></clipPath></defs><path class="cls-2" d="M292.74 92.84l14.51 123.25-117.3-78.43M173.46 6.89L89.39 64.71l99.99 72.46 102.47-50.18L175.21 6.32l14.88 130.4"/><path class="cls-2" d="M83.3 69.39l-39.9 91.04 145.7-24.68m118.15 86.01l-130.86 94.96L45.52 161.03m142.26 10.24l-10.65 146.14"/><g class="cls-3"><path class="cls-4" d="M110.65 145.86a35.72 35.72 0 1 0-35.72-35.72 35.71 35.71 0 0 0 35.72 35.72" transform="translate(-21.3 -45.69)"/><path class="cls-2" d="M110.65 145.86a35.72 35.72 0 1 0-35.72-35.72 35.71 35.71 0 0 0 35.72 35.72z" transform="translate(-21.3 -45.69)"/><path class="cls-4" d="M313.15 171.85A39.17 39.17 0 1 0 274 132.68a39.17 39.17 0 0 0 39.17 39.17" transform="translate(-21.3 -45.69)"/><circle class="cls-2" cx="313.15" cy="132.68" r="39.17" transform="rotate(-67.5 268.31 125.776)"/><path class="cls-4" d="M324.05 302.59a39.17 39.17 0 1 0-39.17-39.17 39.18 39.18 0 0 0 39.17 39.17" transform="translate(-21.3 -45.69)"/><circle class="cls-2" cx="324.05" cy="263.42" r="39.17" transform="rotate(-67.5 279.211 256.518)"/><path class="cls-4" d="M70.35 249.44a39.17 39.17 0 1 0-39.17-39.17 39.18 39.18 0 0 0 39.17 39.17" transform="translate(-21.3 -45.69)"/><circle class="cls-2" cx="49.05" cy="164.58" r="39.17"/><path class="cls-4" d="M198.84 368.11a7.09 7.09 0 1 0-7.08-7.09 7.09 7.09 0 0 0 7.08 7.09" transform="translate(-21.3 -45.69)"/><path class="cls-2" d="M198.84 368.11a7.09 7.09 0 1 0-7.08-7.09 7.09 7.09 0 0 0 7.08 7.09z" transform="translate(-21.3 -45.69)"/><path class="cls-4" d="M212.62 226.57a45.08 45.08 0 1 0-45.08-45.08 45.07 45.07 0 0 0 45.08 45.08" transform="translate(-21.3 -45.69)"/><circle class="cls-2" cx="212.62" cy="181.49" r="45.08" transform="rotate(-82.98 176.14 170.692)"/></g><path class="cls-2" d="M247.46 259.55L54.71 246.09m177.87-136.07L55.42 246.09M171.64 7.98L56.13 53.33m-7.09 8.08l2.41 185.39m271.84-20.91l-20.61 98.77m-94.7-286.21l28.85 57.17m63.08 228.77l-48.19-60.59m63.08-45.91l-63.79 41.66m-10.29-140.88l9.58 141.59"/><g class="cls-3"><path class="cls-4" d="M229.28 93.63A11.62 11.62 0 1 0 217.66 82a11.63 11.63 0 0 0 11.62 11.62" transform="translate(-21.3 -45.69)"/><circle class="cls-2" cx="207.98" cy="36.32" r="11.62"/><path class="cls-4" d="M273 330.89a25.16 25.16 0 1 0-25.16-25.16A25.16 25.16 0 0 0 273 330.89" transform="translate(-21.3 -45.69)"/><path class="cls-2" d="M273 330.89a25.16 25.16 0 1 0-25.16-25.16A25.16 25.16 0 0 0 273 330.89z" transform="translate(-21.3 -45.69)"/><path class="cls-4" d="M344.74 278.81a20.4 20.4 0 1 0-20.4-20.4 20.4 20.4 0 0 0 20.4 20.4" transform="translate(-21.3 -45.69)"/><circle class="cls-2" cx="344.74" cy="258.41" r="20.4" transform="rotate(-10.9 94.639 347.218)"/><path class="cls-4" d="M322.91 382.35a11.63 11.63 0 1 0-11.62-11.63 11.63 11.63 0 0 0 11.62 11.63" transform="translate(-21.3 -45.69)"/><circle class="cls-2" cx="322.91" cy="370.72" r="11.62" transform="rotate(-16.85 157.902 419.707)"/><path class="cls-4" d="M73.61 301A11.62 11.62 0 1 0 62 289.35 11.62 11.62 0 0 0 73.61 301" transform="translate(-21.3 -45.69)"/><circle class="cls-2" cx="52.31" cy="243.65" r="11.62"/></g><path class="cls-2" d="M54.24 59.14l47.06 233.29m28.94-168.2L54.81 55.74M305.2 203.33l3.59-153.26M182.38 9.3L298.3 44.01M307.09 209L175.2 5.85m-.38 7.72l-34.14 110.51M307.09 209l-203.53 84.57m33.45-157.33L103 292.43m-1.7 1.7l-73.99 61.66m77.39-59.96l38.41 55.85m157.46-144.09l-159.31-75.86"/><g class="cls-3"><path class="cls-4" d="M315.33 248.33a1 1 0 1 0-1-1 1 1 0 0 0 1 1" transform="translate(-21.3 -45.69)"/><path d="M294.03 202.64a1 1 0 1 0-1-1 1 1 0 0 0 1 1" stroke-linecap="round" stroke-linejoin="round" stroke-width="1.5" stroke="#222221" fill="none"/><path class="cls-4" d="M76.72 112.13a11.62 11.62 0 1 0-11.63-11.62 11.62 11.62 0 0 0 11.63 11.62" transform="translate(-21.3 -45.69)"/><circle class="cls-2" cx="55.41" cy="54.82" r="11.62"/><path class="cls-4" d="M331.23 105.58A11.62 11.62 0 1 0 319.6 94a11.62 11.62 0 0 0 11.63 11.62" transform="translate(-21.3 -45.69)"/><circle class="cls-2" cx="331.23" cy="93.96" r="11.62" transform="rotate(-13.28 124.38 162.623)"/><path class="cls-4" d="M158.6 189.05a11.63 11.63 0 1 0-11.6-11.62 11.63 11.63 0 0 0 11.62 11.62" transform="translate(-21.3 -45.69)"/><circle class="cls-2" cx="158.6" cy="177.43" r="11.62" transform="rotate(-82.98 122.128 166.621)"/><path class="cls-4" d="M198 60.37a7.09 7.09 0 1 0-7.09-7.09 7.1 7.1 0 0 0 7.09 7.09" transform="translate(-21.3 -45.69)"/><path class="cls-2" d="M198 60.37a7.09 7.09 0 1 0-7.09-7.09 7.1 7.1 0 0 0 7.09 7.09z" transform="translate(-21.3 -45.69)"/><path class="cls-4" d="M124.61 372.88a33.55 33.55 0 1 0-33.54-33.54 33.54 33.54 0 0 0 33.54 33.54" transform="translate(-21.3 -45.69)"/><path class="cls-2" d="M124.61 372.88a33.55 33.55 0 1 0-33.54-33.54 33.54 33.54 0 0 0 33.54 33.54z" transform="translate(-21.3 -45.69)"/><path class="cls-4" d="M47.84 429.58a26 26 0 1 0-26-26.05 26 26 0 0 0 26 26.05" transform="translate(-21.3 -45.69)"/><path class="cls-2" d="M47.84 429.58a26 26 0 1 0-26-26.05 26 26 0 0 0 26 26.05z" transform="translate(-21.3 -45.69)"/><path class="cls-4" d="M166.39 412.82a11.63 11.63 0 1 0-11.62-11.62 11.62 11.62 0 0 0 11.62 11.62" transform="translate(-21.3 -45.69)"/><circle class="cls-2" cx="145.09" cy="355.5" r="11.62"/><path class="cls-4" d="M323.31 263.85a11.62 11.62 0 1 0-11.62-11.62 11.62 11.62 0 0 0 11.62 11.62" transform="translate(-21.3 -45.69)"/><circle class="cls-2" cx="323.31" cy="252.23" r="11.62" transform="rotate(-22.5 197.794 282.94)"/><path class="cls-4" d="M261.52 164.36a11.62 11.62 0 1 0-11.62-11.62 11.62 11.62 0 0 0 11.62 11.62" transform="translate(-21.3 -45.69)"/><circle class="cls-2" cx="240.22" cy="107.05" r="11.62"/></g></svg>