<svg width="352.277" height="352.277" xmlns="http://www.w3.org/2000/svg"><g transform="translate(1226.747 990.644)"><rect width="562.988" height="562.988" x="-833.386" y="-677.633" rx="0" ry="0" fill="none"/><circle cx="-1050.608" cy="-814.506" r="176.139" fill="#119eda"/><path d="M-1131.223-898.938c20.659-17.066 50.3-30.09 81.289-30.09 51.647 0 79.941 29.641 79.941 65.12 0 41.318-35.03 54.343-66.468 66.02-24.7 9.43-48.504 17.066-48.504 37.724 0 16.617 12.575 31.438 39.971 31.438 19.311 0 35.03-8.084 49.85-19.312l17.516 23.354c-16.617 13.473-40.42 24.7-67.816 24.7-47.156 0-75-26.946-75-61.976 0-36.827 34.132-51.647 65.12-62.875 23.803-8.982 49.852-18.863 49.852-41.318 0-18.863-14.372-34.132-43.115-34.132-26.048 0-45.36 10.778-64.222 26.048z" style="line-height:125%;-inkscape-font-specification:'Source Sans Pro'" font-weight="400" font-size="79.126" font-family="Source Sans Pro" letter-spacing="0" word-spacing="0" fill="#fff"/></g></svg>