<svg xmlns="http://www.w3.org/2000/svg" width="128" height="128" viewBox="0 0 33.867 33.867"><g stroke-width="4.135"><path d="M-153.458 143.542v63.5l55.562 31.75 55.563-31.75v-63.5l-55.563-31.75z" fill="#2fb5ef" stroke="#fff" stroke-width="8.751" transform="matrix(.24192 0 0 .24181 40.616 -25.454)"/><path d="M3.492 9.256l13.441-7.678v6.078z" fill="#2fb5ef"/><path d="M30.375 9.256L16.933 1.578v6.078z" fill="#5ec5f3"/><path d="M3.492 9.256l5.12 12.156 8.321-13.756z" fill="#119eda"/><path d="M30.375 9.256l-5.12 12.156-8.322-13.756z" fill="#46bdf1"/><path d="M3.492 9.256l5.12 12.156-5.12 3.199z" fill="#0d7bab"/><path d="M30.375 9.256l-5.12 12.156 5.12 3.199z" fill="#17aced"/><path d="M3.492 24.61l13.441 7.678-8.32-10.876z" fill="#0d7bab"/><path d="M30.375 24.61l-13.442 7.678 8.321-10.876z" fill="#119eda"/><path d="M16.933 32.288l-8.32-10.876h16.641z" fill="#119eda"/><path d="M8.612 21.412h16.642l-8.32-13.756z" fill="#2fb5ef"/></g></svg>