<svg width="245.446" height="208.715" viewBox="0 0 64.941 55.223" xmlns="http://www.w3.org/2000/svg"><path d="M28.712 15.067a7.534 7.534 0 000-15.067v3.491a4.047 4.047 0 014.042 4.042 4.047 4.047 0 01-4.042 4.043zM7.533 11.576a4.047 4.047 0 01-4.042-4.042A4.047 4.047 0 017.533 3.49V0a7.533 7.533 0 000 15.067zM8.17 0h19.89v3.491H8.17zm0 11.576h19.89v3.49H8.17zm17.62 23.569a7.539 7.539 0 000-15.077v3.494a4.05 4.05 0 014.044 4.044 4.05 4.05 0 01-4.044 4.045zm-.652-3.494a4.05 4.05 0 01-4.044-4.044 4.05 4.05 0 014.044-4.045v-3.494a7.539 7.539 0 000 15.077zm15.686-11.583h15.06v3.493h-15.06zm0 8.089h15.06v3.494h-15.06zm-.637 6.988h-3.826V20.068h3.826zm16.334-3.494a5.791 5.791 0 100-11.583v3.494a2.3 2.3 0 012.298 2.298 2.3 2.3 0 01-2.298 2.298zM12.044 20.097H4.407v3.487h2.075v11.56h3.487v-11.56h2.075zm31.244-5.03h-3.667V4.899C39.621 0 43.297 0 43.297 0h1.28v3.491s-1.289 0-1.289 1.742zM61.273 0h3.668v10.168c0 4.899-3.676 4.899-3.676 4.899h-1.281v-3.491s1.29 0 1.29-1.742zM46.635 0h-1.42v3.491h.526c1.242 0 1.486.764 5.068 5.596s4.517 5.98 6.82 5.98h1.719v-3.491h-.87c-1.526 0-1.29-.163-5.198-5.251C49.372 1.236 48.855 0 46.635 0M22.12 51.734a4.044 4.044 0 01-4.038-4.039 4.044 4.044 0 014.039-4.04v-3.488a7.528 7.528 0 000 15.056zm.637-11.567h6.732v3.489h-6.732zm0 11.567h6.732v3.489h-6.732zm7.368 0v3.489a7.522 7.522 0 006.501-3.735l-2.874-2.018a4.043 4.043 0 01-3.627 2.264m0-11.567v3.489a4.03 4.03 0 013.094 1.446l2.861-2.01a7.514 7.514 0 00-5.955-2.925m-18.081 3.489v-3.489H4.403v3.489h2.076v8.078H4.403v3.489h7.641v-3.489H9.968v-8.078zM0 20.09h3.767v3.49H0zm12.683 0h3.767v3.49h-3.767z"/></svg>